<?xml version="1.0" standalone="no"?>
<!DOCTYPE svg PUBLIC "-//W3C//DTD SVG 20010904//EN"
 "http://www.w3.org/TR/2001/REC-SVG-20010904/DTD/svg10.dtd">
<svg version="1.0" xmlns="http://www.w3.org/2000/svg"
 width="512.000000pt" height="512.000000pt" viewBox="0 0 512.000000 512.000000"
 preserveAspectRatio="xMidYMid meet">
<metadata>
Created by potrace 1.11, written by Peter Selinger 2001-2013
</metadata>
<g transform="translate(0.000000,512.000000) scale(0.100000,-0.100000)"
fill="#000000" stroke="none">
<path d="M2418 5075 c-2 -2 -37 -5 -78 -8 -341 -25 -721 -146 -1050 -335 -244
-140 -536 -389 -705 -602 -33 -41 -63 -77 -66 -80 -12 -11 -130 -192 -177
-272 -140 -240 -240 -503 -291 -768 -42 -219 -49 -304 -45 -540 4 -198 6 -230
18 -295 2 -16 8 -50 11 -75 30 -213 98 -385 194 -487 20 -21 68 -103 108 -183
168 -339 408 -635 703 -866 66 -52 224 -159 271 -185 293 -158 520 -243 789
-294 14 -3 36 -7 49 -10 14 -2 47 -7 75 -10 28 -4 71 -9 96 -11 147 -18 442
-8 637 20 122 17 370 83 458 121 17 7 41 16 55 20 113 34 528 267 585 329 6 6
31 27 58 47 114 88 287 261 382 383 17 22 39 51 51 65 31 39 116 169 153 233
21 38 53 73 90 102 92 71 124 121 184 291 102 287 141 524 142 850 0 195 -6
281 -30 420 -47 279 -127 516 -254 760 -57 109 -142 251 -173 290 -5 6 -35 46
-68 90 -107 141 -292 332 -414 427 -16 13 -43 34 -60 48 -127 105 -386 255
-578 334 -193 79 -458 151 -628 170 -25 3 -67 8 -95 12 -48 6 -392 14 -397 9z
m281 -1696 c152 -24 320 -104 439 -208 114 -98 207 -243 258 -401 25 -77 28
-99 28 -240 1 -165 -7 -215 -52 -330 -106 -270 -352 -477 -636 -537 -92 -19
-261 -18 -355 2 -279 59 -512 251 -624 515 -54 128 -71 229 -64 380 7 146 34
250 99 370 174 326 542 509 907 449z"/>
</g>
</svg>
